# xmcd CD database file
#
# Track frame offsets:
#	150
#	11835
#	27527
#	41045
#	50770
#	65670
#	76305
#	88502
#	119212
#	132245
#	143935
#	155640
#	169305
#	186082
#	197665
#	206722
#	221022
#
# Disc length: 3148 seconds
#
# Revision: 0
# Processed by: cddbd v1.5.1PL0 Copyright (c) Steve Scherf et al.
# Submitted via: CDex 1.51
#
DISCID=0c0c4a11
DTITLE=Various Artist - Rythm'n blues cd 01
DYEAR=1900
DGENRE=Blues
TTITLE0=Sam and dave - Soul man
TTITLE1=Aretha franklin - I say a little prayer
TTITLE2=Eddie floyd - Knock on wood
TTITLE3=Tom jones - I can't turn yoou loose
TTITLE4=Righteous brothers - Soul and inspiration
TTITLE5=Ben e king - Save the last dance for me
TTITLE6=Jackie wilson - Reet petite
TTITLE7=Erick bamy - Keep on running
TTITLE8=Mary wells - My guy
TTITLE9=Lou rawls - fa fa  fa isad song
TTITLE10=Wilson pickett - if you need me
TTITLE11=Aaron neville - Tell it like it is
TTITLE12=Ike and tina turner - I've been loving you too long
TTITLE13=Jerry butler - make it easy on yourself
TTITLE14=Gladys knight and the pips - every beat of my heart
TTITLE15=Percy sledge - a warm and tender love
TTITLE16=Etta james - rock me baby
EXTD=
EXTT0=
EXTT1=
EXTT2=
EXTT3=
EXTT4=
EXTT5=
EXTT6=
EXTT7=
EXTT8=
EXTT9=
EXTT10=
EXTT11=
EXTT12=
EXTT13=
EXTT14=
EXTT15=
EXTT16=
PLAYORDER=
